<svg width="77" height="86" viewBox="0 0 77 86" fill="none" xmlns="http://www.w3.org/2000/svg">
<path d="M43.8449 56.1394H48.6641V57H34.7803L39.0258 54.1314L33.346 40.1902H13.725L7.24199 56.1394H11.3727V57H1.27536L7.12724 53.6725L22.7896 15.0615V14.2009L22.7323 14.1436L18.2573 11.1029H25.5435L43.8449 56.1394ZM14.0692 39.3296H33.0018L23.5355 16.0368L14.0692 39.3296Z" fill="black"/>
<path d="M71.4026 72.586H75.5334V73.4465H63.7149V72.586H67.3866L52.4701 57.0957H48.4541V70.4058L52.9864 73.4465H39.9631V72.586H44.4381V30.5901L39.9057 27.5494H55.7976C69.0504 27.5494 74.0991 34.2045 74.0991 42.466C74.0991 50.6127 69.2225 56.8662 56.4861 57.0957L71.4026 72.586ZM48.4541 28.41V56.2351H55.7976C68.6488 56.2351 70.0831 48.9489 70.0831 42.466C70.0831 35.983 68.6488 28.41 55.7976 28.41H48.4541Z" fill="black"/>
</svg>
