<svg width="113" height="11" viewBox="0 0 113 11" fill="none" xmlns="http://www.w3.org/2000/svg">
<path d="M9.27042 9.81751H10.2924V10H7.3482L8.24848 9.3917L7.04406 6.43539H2.88332L1.50857 9.81751H2.38452V10H0.243318L1.48424 9.29438L4.80553 1.10673V0.924238L4.79336 0.912072L3.84442 0.26728H5.38949L9.27042 9.81751ZM2.95631 6.2529H6.97106L4.96369 1.31355L2.95631 6.2529ZM16.7485 9.35521L17.7097 10H14.9602V9.81751H15.8969V6.03392C15.8969 4.6835 15.4225 3.97788 14.4005 3.97788C13.5003 3.97788 12.3567 4.6835 12.3567 6.76387V9.35521L13.3178 10H10.5683V9.81751H11.505V4.56184L10.5439 3.91705H12.3567V4.81733H12.5878C12.9528 4.17253 13.5489 3.79539 14.4005 3.79539C16.0551 3.79539 16.7485 4.76866 16.7485 6.03392V9.35521ZM20.3387 4.09954H19.402V7.56682C19.402 9.11189 19.4993 9.81751 20.2779 9.81751V10C18.8667 10 18.5503 9.02673 18.5503 7.56682V4.56184L17.5892 3.91705H18.5503V3.06544H19.402V3.91705H20.3387V4.09954ZM23.3236 10.1217C21.7421 10.1217 20.4525 8.88074 20.4525 6.95852C20.4525 5.03631 21.7421 3.79539 23.3236 3.79539C24.9052 3.79539 26.1948 5.03631 26.1948 6.95852C26.1948 8.88074 24.9052 10.1217 23.3236 10.1217ZM21.3041 8.97806C22.0462 9.70802 23.5305 9.65935 24.7836 8.41843C26.0366 7.17751 26.0975 5.66894 25.3432 4.93899C24.6011 4.20903 23.1168 4.25769 21.8637 5.49862C20.6107 6.73954 20.5498 8.24811 21.3041 8.97806ZM32.3955 9.35521L33.3566 10H30.6071V9.81751H31.5439V6.03392C31.5439 4.6835 31.0694 3.97788 30.0475 3.97788C29.1472 3.97788 28.0036 4.6835 28.0036 6.76387V9.35521L28.9647 10H26.2152V9.81751H27.152V4.56184L26.1909 3.91705H28.0036V4.81733H28.2348C28.5998 4.17253 29.1959 3.79539 30.0475 3.79539C31.7021 3.79539 32.3955 4.76866 32.3955 6.03392V9.35521ZM35.4812 1.48387L34.8607 2.72479L34.2403 1.48387H35.4812ZM35.2865 9.35521L36.2476 10H33.4981V9.81751H34.4349V4.56184L33.4738 3.91705H36.2233V4.09954H35.2865V9.35521ZM42.5654 9.35521L43.5265 10H40.7771V9.81751H41.7138V6.03392C41.7138 4.6835 41.2394 3.97788 40.2174 3.97788C39.3171 3.97788 38.1736 4.6835 38.1736 6.76387V9.35521L39.1347 10H36.3852V9.81751H37.3219V4.56184L36.3608 3.91705H38.1736V4.81733H38.4047C38.7697 4.17253 39.3658 3.79539 40.2174 3.79539C41.872 3.79539 42.5654 4.76866 42.5654 6.03392V9.35521ZM48.6253 9.35521L49.5864 10H47.7737V8.13862H47.433C46.9586 9.18488 46.18 10.1217 45.0242 10.1217C44.1847 10.1217 43.4061 9.65935 43.4061 8.32111C43.4061 7.04369 44.4402 5.96092 47.5304 5.96092H47.7737V5.91226C47.7615 4.6835 47.2992 3.97788 46.2773 3.97788C45.377 3.97788 44.7444 4.69567 44.5376 5.91226L43.5643 6.03392C43.8684 4.78083 44.7444 3.79539 46.2773 3.79539C47.9318 3.79539 48.6253 4.76866 48.6253 5.91226V9.35521ZM45.2675 9.81751C46.7639 9.81751 47.6399 7.26267 47.7615 6.14341H47.5304C45.2553 6.14341 44.2577 7.36 44.2577 8.32111C44.2577 9.34304 44.6592 9.81751 45.2675 9.81751ZM60.3977 9.81751H61.2737V10H58.7675V9.81751H59.5461L56.383 6.53272H55.5313V9.35521L56.4925 10H53.7308V9.81751H54.6797V0.912072L53.7186 0.26728H57.0886C59.8989 0.26728 60.9695 1.67852 60.9695 3.43041C60.9695 5.15797 59.9354 6.48405 57.2346 6.53272L60.3977 9.81751ZM55.5313 0.449768V6.35023H57.0886C59.8137 6.35023 60.1179 4.80516 60.1179 3.43041C60.1179 2.05567 59.8137 0.449768 57.0886 0.449768H55.5313ZM66.9811 9.35521L67.9422 10H66.1295V8.13862H65.7888C65.3143 9.18488 64.5357 10.1217 63.38 10.1217C62.5405 10.1217 61.7619 9.65935 61.7619 8.32111C61.7619 7.04369 62.796 5.96092 65.8861 5.96092H66.1295V5.91226C66.1173 4.6835 65.655 3.97788 64.6331 3.97788C63.7328 3.97788 63.1002 4.69567 62.8933 5.91226L61.9201 6.03392C62.2242 4.78083 63.1002 3.79539 64.6331 3.79539C66.2876 3.79539 66.9811 4.76866 66.9811 5.91226V9.35521ZM63.6233 9.81751C65.1197 9.81751 65.9956 7.26267 66.1173 6.14341H65.8861C63.6111 6.14341 62.6135 7.36 62.6135 8.32111C62.6135 9.34304 63.015 9.81751 63.6233 9.81751ZM73.9649 9.81751H74.9016V10H73.1133V9.09972H72.9673C72.4441 9.85401 71.6534 10.1217 70.8139 10.1217C69.2323 10.1217 67.8211 9.12406 67.8211 6.95852C67.8211 4.79299 69.2323 3.79539 70.8139 3.79539C71.6534 3.79539 72.432 4.06304 72.9551 4.81733H73.1133V1.48387H74.926L73.9649 2.12866V9.81751ZM70.8139 9.93917C71.702 9.927 73.1133 9.29438 73.1133 6.8977C73.1133 4.57401 71.6777 3.96571 70.8139 3.97788C69.7676 3.99005 68.6362 4.96332 68.624 6.95852C68.6119 8.9659 69.7676 9.95134 70.8139 9.93917ZM80.285 3.91705H80.4675V6.30157C80.1268 4.57401 79.0319 3.96571 78.1681 3.97788C77.1218 3.99005 75.9782 4.96332 75.9782 6.95852C75.9782 8.9659 77.1218 9.95134 78.1681 9.93917C79.0562 9.927 80.1511 9.29438 80.4675 7.50599V10H80.285V9.40387C79.7618 9.86618 78.9954 10.1217 78.1681 10.1217C76.5865 10.1217 75.1753 9.12406 75.1753 6.95852C75.1753 4.79299 76.5865 3.79539 78.1681 3.79539C78.9954 3.79539 79.7618 4.05087 80.285 4.51318V3.91705ZM86.548 9.35521L87.5091 10H84.7596V9.81751H85.6964V6.03392C85.6964 4.6835 85.2219 3.97788 84.2 3.97788C83.2997 3.97788 82.1561 4.6835 82.1561 6.76387V9.35521L83.1172 10H80.3677V9.81751H81.3045V2.12866L80.3434 1.48387H82.1561V4.81733H82.3873C82.7523 4.17253 83.3484 3.79539 84.2 3.79539C85.8546 3.79539 86.548 4.76866 86.548 6.03392V9.35521ZM92.9729 6.66654C93.131 8.88074 91.8414 10.1217 90.2599 10.1217C88.6783 10.1217 87.3887 8.88074 87.3887 6.95852C87.3887 5.03631 88.6783 3.79539 90.2599 3.79539C91.3305 3.79539 92.2551 4.35502 92.7539 5.30396H89.0068C88.9338 5.36479 88.8729 5.42562 88.7999 5.49862C87.5469 6.73954 87.486 8.24811 88.2403 8.97806C88.9824 9.70802 90.4667 9.65935 91.7198 8.41843C92.2916 7.8588 92.693 7.23834 92.9729 6.66654ZM92.2794 4.93899C91.6224 4.29419 90.3815 4.25769 89.2379 5.12147H92.4376C92.3889 5.06064 92.3402 4.99981 92.2794 4.93899ZM99.308 9.35521L100.269 10H97.5196V9.81751H98.4564V6.03392C98.4564 4.6835 97.9819 3.97788 96.9599 3.97788C96.0597 3.97788 94.9161 4.6835 94.9161 6.76387V9.35521L95.8772 10H93.1277V9.81751H94.0645V4.56184L93.1034 3.91705H94.9161V4.81733H95.1472C95.5122 4.17253 96.1083 3.79539 96.9599 3.79539C98.6145 3.79539 99.308 4.76866 99.308 6.03392V9.35521ZM105.708 4.09954L103.093 6.84903L105.721 9.81751H106.584V10H103.665V9.81751H104.626L102.582 7.3965L101.961 8.04129V10H100.173V9.81751H101.11V2.12866L100.149 1.48387H102.898V1.66636H101.961V7.65198L104.893 4.56184L103.932 3.91705H106.584V4.09954H105.708ZM109.34 10.1217C107.759 10.1217 106.469 8.88074 106.469 6.95852C106.469 5.03631 107.759 3.79539 109.34 3.79539C110.922 3.79539 112.212 5.03631 112.212 6.95852C112.212 8.88074 110.922 10.1217 109.34 10.1217ZM107.321 8.97806C108.063 9.70802 109.547 9.65935 110.8 8.41843C112.053 7.17751 112.114 5.66894 111.36 4.93899C110.618 4.20903 109.134 4.25769 107.88 5.49862C106.627 6.73954 106.567 8.24811 107.321 8.97806Z" fill="white"/>
</svg>
