<svg width="142" height="13" viewBox="0 0 142 13" fill="none" xmlns="http://www.w3.org/2000/svg">
<path d="M11.6579 12.0628H12.943V12.2922H9.24062L10.3728 11.5273L8.85815 7.80962H3.62587L1.89708 12.0628H2.99861V12.2922H0.305981L1.86648 11.4049L6.04312 1.10863V0.879148L6.02782 0.863849L4.8345 0.0529997H6.77748L11.6579 12.0628ZM3.71767 7.58013H8.76635L6.24201 1.36872L3.71767 7.58013ZM21.0619 11.4814L22.2705 12.2922H18.8129V12.0628H19.991V7.30475C19.991 5.60655 19.3943 4.71921 18.1092 4.71921C16.977 4.71921 15.5389 5.60655 15.5389 8.22269V11.4814L16.7476 12.2922H13.29V12.0628H14.468V5.45356L13.2594 4.64271H15.5389V5.77484H15.8296C16.2886 4.96399 17.0382 4.48972 18.1092 4.48972C20.1898 4.48972 21.0619 5.71365 21.0619 7.30475V11.4814ZM25.5767 4.8722H24.3986V9.23243C24.3986 11.1754 24.521 12.0628 25.5002 12.0628V12.2922C23.7255 12.2922 23.3277 11.0683 23.3277 9.23243V5.45356L22.1191 4.64271H23.3277V3.57178H24.3986V4.64271H25.5767V4.8722ZM29.3303 12.4452C27.3414 12.4452 25.7197 10.8847 25.7197 8.46747C25.7197 6.05023 27.3414 4.48972 29.3303 4.48972C31.3192 4.48972 32.9409 6.05023 32.9409 8.46747C32.9409 10.8847 31.3192 12.4452 29.3303 12.4452ZM26.7907 11.0071C27.7239 11.9251 29.5904 11.8639 31.1662 10.3034C32.742 8.74286 32.8185 6.84578 31.8699 5.92783C30.9367 5.00989 29.0702 5.07109 27.4944 6.63159C25.9186 8.19209 25.8421 10.0892 26.7907 11.0071ZM40.7385 11.4814L41.9471 12.2922H38.4895V12.0628H39.6676V7.30475C39.6676 5.60655 39.0709 4.71921 37.7858 4.71921C36.6536 4.71921 35.2155 5.60655 35.2155 8.22269V11.4814L36.4242 12.2922H32.9666V12.0628H34.1446V5.45356L32.936 4.64271H35.2155V5.77484H35.5062C35.9652 4.96399 36.7148 4.48972 37.7858 4.48972C39.8664 4.48972 40.7385 5.71365 40.7385 7.30475V11.4814ZM44.6188 1.5829L43.8386 3.14341L43.0583 1.5829H44.6188ZM44.374 11.4814L45.5827 12.2922H42.1251V12.0628H43.3031V5.45356L42.0945 4.64271H45.5521V4.8722H44.374V11.4814ZM53.5275 11.4814L54.7362 12.2922H51.2786V12.0628H52.4566V7.30475C52.4566 5.60655 51.8599 4.71921 50.5748 4.71921C49.4427 4.71921 48.0046 5.60655 48.0046 8.22269V11.4814L49.2132 12.2922H45.7556V12.0628H46.9336V5.45356L45.725 4.64271H48.0046V5.77484H48.2953C48.7542 4.96399 49.5039 4.48972 50.5748 4.48972C52.6555 4.48972 53.5275 5.71365 53.5275 7.30475V11.4814ZM61.148 11.4814L62.3566 12.2922H60.0771V9.95148H59.6487C59.052 11.2672 58.0729 12.4452 56.6195 12.4452C55.5639 12.4452 54.5847 11.8639 54.5847 10.181C54.5847 8.57457 55.8851 7.21295 59.7711 7.21295H60.0771V7.15176C60.0618 5.60655 59.4804 4.71921 58.1953 4.71921C57.0632 4.71921 56.2676 5.62185 56.0075 7.15176L54.7836 7.30475C55.1661 5.72895 56.2676 4.48972 58.1953 4.48972C60.276 4.48972 61.148 5.71365 61.148 7.15176V11.4814ZM56.9255 12.0628C58.8073 12.0628 59.9088 8.84995 60.0618 7.44244H59.7711C56.9102 7.44244 55.6557 8.97234 55.6557 10.181C55.6557 11.4661 56.1605 12.0628 56.9255 12.0628ZM75.9522 12.0628H77.0538V12.2922H73.9022V12.0628H74.8813L70.9035 7.93201H69.8326V11.4814L71.0412 12.2922H67.5684V12.0628H68.7617V0.863849L67.5531 0.0529997H71.7909C75.325 0.0529997 76.6713 1.82769 76.6713 4.03075C76.6713 6.20322 75.3709 7.87081 71.9745 7.93201L75.9522 12.0628ZM69.8326 0.282485V7.70252H71.7909C75.2179 7.70252 75.6003 5.75954 75.6003 4.03075C75.6003 2.30196 75.2179 0.282485 71.7909 0.282485H69.8326ZM84.2311 11.4814L85.4397 12.2922H83.1601V9.95148H82.7317C82.1351 11.2672 81.1559 12.4452 79.7025 12.4452C78.6469 12.4452 77.6678 11.8639 77.6678 10.181C77.6678 8.57457 78.9682 7.21295 82.8541 7.21295H83.1601V7.15176C83.1448 5.60655 82.5635 4.71921 81.2783 4.71921C80.1462 4.71921 79.3507 5.62185 79.0906 7.15176L77.8666 7.30475C78.2491 5.72895 79.3507 4.48972 81.2783 4.48972C83.359 4.48972 84.2311 5.71365 84.2311 7.15176V11.4814ZM80.0085 12.0628C81.8903 12.0628 82.9918 8.84995 83.1448 7.44244H82.8541C79.9932 7.44244 78.7387 8.97234 78.7387 10.181C78.7387 11.4661 79.2436 12.0628 80.0085 12.0628ZM93.0134 12.0628H94.1914V12.2922H91.9425V11.1601H91.7589C91.101 12.1086 90.1066 12.4452 89.051 12.4452C87.0621 12.4452 85.2874 11.1907 85.2874 8.46747C85.2874 5.74424 87.0621 4.48972 89.051 4.48972C90.1066 4.48972 91.0857 4.8263 91.7436 5.77484H91.9425V1.5829H94.222L93.0134 2.39375V12.0628ZM89.051 12.2157C90.1678 12.2004 91.9425 11.4049 91.9425 8.39098C91.9425 5.46886 90.1372 4.70391 89.051 4.71921C87.7352 4.73451 86.3124 5.95843 86.2971 8.46747C86.2818 10.9918 87.7352 12.231 89.051 12.2157ZM100.961 4.64271H101.191V7.64133C100.762 5.46886 99.3853 4.70391 98.2991 4.71921C96.9834 4.73451 95.5453 5.95843 95.5453 8.46747C95.5453 10.9918 96.9834 12.231 98.2991 12.2157C99.4159 12.2004 100.793 11.4049 101.191 9.15593V12.2922H100.961V11.5426C100.303 12.1239 99.3395 12.4452 98.2991 12.4452C96.3102 12.4452 94.5355 11.1907 94.5355 8.46747C94.5355 5.74424 96.3102 4.48972 98.2991 4.48972C99.3395 4.48972 100.303 4.811 100.961 5.39237V4.64271ZM108.837 11.4814L110.046 12.2922H106.588V12.0628H107.766V7.30475C107.766 5.60655 107.17 4.71921 105.884 4.71921C104.752 4.71921 103.314 5.60655 103.314 8.22269V11.4814L104.523 12.2922H101.065V12.0628H102.243V2.39375L101.035 1.5829H103.314V5.77484H103.605C104.064 4.96399 104.814 4.48972 105.884 4.48972C107.965 4.48972 108.837 5.71365 108.837 7.30475V11.4814ZM116.917 8.1003C117.116 10.8847 115.494 12.4452 113.505 12.4452C111.516 12.4452 109.894 10.8847 109.894 8.46747C109.894 6.05023 111.516 4.48972 113.505 4.48972C114.851 4.48972 116.014 5.19348 116.641 6.3868H111.929C111.837 6.4633 111.761 6.53979 111.669 6.63159C110.093 8.19209 110.017 10.0892 110.965 11.0071C111.899 11.9251 113.765 11.8639 115.341 10.3034C116.06 9.5996 116.565 8.81935 116.917 8.1003ZM116.045 5.92783C115.218 5.11698 113.658 5.07109 112.22 6.15732H116.243C116.182 6.08082 116.121 6.00433 116.045 5.92783ZM124.883 11.4814L126.092 12.2922H122.634V12.0628H123.812V7.30475C123.812 5.60655 123.216 4.71921 121.931 4.71921C120.798 4.71921 119.36 5.60655 119.36 8.22269V11.4814L120.569 12.2922H117.111V12.0628H118.289V5.45356L117.081 4.64271H119.36V5.77484H119.651C120.11 4.96399 120.86 4.48972 121.931 4.48972C124.011 4.48972 124.883 5.71365 124.883 7.30475V11.4814ZM132.932 4.8722L129.643 8.32978L132.947 12.0628H134.034V12.2922H130.362V12.0628H131.57L129 9.01824L128.22 9.82909V12.2922H125.971V12.0628H127.149V2.39375L125.94 1.5829H129.398V1.81239H128.22V9.33952L131.907 5.45356L130.698 4.64271H134.034V4.8722H132.932ZM137.499 12.4452C135.51 12.4452 133.889 10.8847 133.889 8.46747C133.889 6.05023 135.51 4.48972 137.499 4.48972C139.488 4.48972 141.11 6.05023 141.11 8.46747C141.11 10.8847 139.488 12.4452 137.499 12.4452ZM134.96 11.0071C135.893 11.9251 137.759 11.8639 139.335 10.3034C140.911 8.74286 140.988 6.84578 140.039 5.92783C139.106 5.00989 137.239 5.07109 135.663 6.63159C134.088 8.19209 134.011 10.0892 134.96 11.0071Z" fill="black"/>
</svg>
