<svg width="142" height="104" viewBox="0 0 142 104" fill="none" xmlns="http://www.w3.org/2000/svg">
<path d="M75.8449 56.1394H80.6641V57H66.7803L71.0258 54.1314L65.346 40.1902H45.725L39.242 56.1394H43.3727V57H33.2754L39.1272 53.6725L54.7896 15.0615V14.2009L54.7323 14.1436L50.2573 11.1029H57.5435L75.8449 56.1394ZM46.0692 39.3296H65.0018L55.5355 16.0368L46.0692 39.3296Z" fill="black"/>
<path d="M103.403 72.586H107.533V73.4465H95.7149V72.586H99.3866L84.4701 57.0957H80.4541V70.4058L84.9864 73.4465H71.9631V72.586H76.4381V30.5901L71.9057 27.5494H87.7976C101.05 27.5494 106.099 34.2045 106.099 42.466C106.099 50.6127 101.223 56.8662 88.4861 57.0957L103.403 72.586ZM80.4541 28.41V56.2351H87.7976C100.649 56.2351 102.083 48.9489 102.083 42.466C102.083 35.983 100.649 28.41 87.7976 28.41H80.4541Z" fill="black"/>
<path d="M11.6579 100.063H12.943V100.292H9.24062L10.3728 99.5273L8.85815 95.8096H3.62587L1.89708 100.063H2.99861V100.292H0.305981L1.86648 99.4049L6.04312 89.1086V88.8791L6.02782 88.8638L4.8345 88.053H6.77748L11.6579 100.063ZM3.71767 95.5801H8.76635L6.24201 89.3687L3.71767 95.5801ZM21.0619 99.4814L22.2705 100.292H18.8129V100.063H19.991V95.3047C19.991 93.6066 19.3943 92.7192 18.1092 92.7192C16.977 92.7192 15.5389 93.6066 15.5389 96.2227V99.4814L16.7476 100.292H13.29V100.063H14.468V93.4536L13.2594 92.6427H15.5389V93.7748H15.8296C16.2886 92.964 17.0382 92.4897 18.1092 92.4897C20.1898 92.4897 21.0619 93.7136 21.0619 95.3047V99.4814ZM25.5767 92.8722H24.3986V97.2324C24.3986 99.1754 24.521 100.063 25.5002 100.063V100.292C23.7255 100.292 23.3277 99.0683 23.3277 97.2324V93.4536L22.1191 92.6427H23.3277V91.5718H24.3986V92.6427H25.5767V92.8722ZM29.3303 100.445C27.3414 100.445 25.7197 98.8847 25.7197 96.4675C25.7197 94.0502 27.3414 92.4897 29.3303 92.4897C31.3192 92.4897 32.9409 94.0502 32.9409 96.4675C32.9409 98.8847 31.3192 100.445 29.3303 100.445ZM26.7907 99.0071C27.7239 99.9251 29.5904 99.8639 31.1662 98.3034C32.742 96.7429 32.8185 94.8458 31.8699 93.9278C30.9367 93.0099 29.0702 93.0711 27.4944 94.6316C25.9186 96.1921 25.8421 98.0892 26.7907 99.0071ZM40.7385 99.4814L41.9471 100.292H38.4895V100.063H39.6676V95.3047C39.6676 93.6066 39.0709 92.7192 37.7858 92.7192C36.6536 92.7192 35.2155 93.6066 35.2155 96.2227V99.4814L36.4242 100.292H32.9666V100.063H34.1446V93.4536L32.936 92.6427H35.2155V93.7748H35.5062C35.9652 92.964 36.7148 92.4897 37.7858 92.4897C39.8664 92.4897 40.7385 93.7136 40.7385 95.3047V99.4814ZM44.6188 89.5829L43.8386 91.1434L43.0583 89.5829H44.6188ZM44.374 99.4814L45.5827 100.292H42.1251V100.063H43.3031V93.4536L42.0945 92.6427H45.5521V92.8722H44.374V99.4814ZM53.5275 99.4814L54.7362 100.292H51.2786V100.063H52.4566V95.3047C52.4566 93.6066 51.8599 92.7192 50.5748 92.7192C49.4427 92.7192 48.0046 93.6066 48.0046 96.2227V99.4814L49.2132 100.292H45.7556V100.063H46.9336V93.4536L45.725 92.6427H48.0046V93.7748H48.2953C48.7542 92.964 49.5039 92.4897 50.5748 92.4897C52.6555 92.4897 53.5275 93.7136 53.5275 95.3047V99.4814ZM61.148 99.4814L62.3566 100.292H60.0771V97.9515H59.6487C59.052 99.2672 58.0729 100.445 56.6195 100.445C55.5639 100.445 54.5847 99.8639 54.5847 98.181C54.5847 96.5746 55.8851 95.213 59.7711 95.213H60.0771V95.1518C60.0618 93.6066 59.4804 92.7192 58.1953 92.7192C57.0632 92.7192 56.2676 93.6219 56.0075 95.1518L54.7836 95.3047C55.1661 93.7289 56.2676 92.4897 58.1953 92.4897C60.276 92.4897 61.148 93.7136 61.148 95.1518V99.4814ZM56.9255 100.063C58.8073 100.063 59.9088 96.85 60.0618 95.4424H59.7711C56.9102 95.4424 55.6557 96.9723 55.6557 98.181C55.6557 99.4661 56.1605 100.063 56.9255 100.063ZM75.9522 100.063H77.0538V100.292H73.9022V100.063H74.8813L70.9035 95.932H69.8326V99.4814L71.0412 100.292H67.5684V100.063H68.7617V88.8638L67.5531 88.053H71.7909C75.325 88.053 76.6713 89.8277 76.6713 92.0308C76.6713 94.2032 75.3709 95.8708 71.9745 95.932L75.9522 100.063ZM69.8326 88.2825V95.7025H71.7909C75.2179 95.7025 75.6003 93.7595 75.6003 92.0308C75.6003 90.302 75.2179 88.2825 71.7909 88.2825H69.8326ZM84.2311 99.4814L85.4397 100.292H83.1601V97.9515H82.7317C82.1351 99.2672 81.1559 100.445 79.7025 100.445C78.6469 100.445 77.6678 99.8639 77.6678 98.181C77.6678 96.5746 78.9682 95.213 82.8541 95.213H83.1601V95.1518C83.1448 93.6066 82.5635 92.7192 81.2783 92.7192C80.1462 92.7192 79.3507 93.6219 79.0906 95.1518L77.8666 95.3047C78.2491 93.7289 79.3507 92.4897 81.2783 92.4897C83.359 92.4897 84.2311 93.7136 84.2311 95.1518V99.4814ZM80.0085 100.063C81.8903 100.063 82.9918 96.85 83.1448 95.4424H82.8541C79.9932 95.4424 78.7387 96.9723 78.7387 98.181C78.7387 99.4661 79.2436 100.063 80.0085 100.063ZM93.0134 100.063H94.1914V100.292H91.9425V99.1601H91.7589C91.101 100.109 90.1066 100.445 89.051 100.445C87.0621 100.445 85.2874 99.1907 85.2874 96.4675C85.2874 93.7442 87.0621 92.4897 89.051 92.4897C90.1066 92.4897 91.0857 92.8263 91.7436 93.7748H91.9425V89.5829H94.222L93.0134 90.3938V100.063ZM89.051 100.216C90.1678 100.2 91.9425 99.4049 91.9425 96.391C91.9425 93.4689 90.1372 92.7039 89.051 92.7192C87.7352 92.7345 86.3124 93.9584 86.2971 96.4675C86.2818 98.9918 87.7352 100.231 89.051 100.216ZM100.961 92.6427H101.191V95.6413C100.762 93.4689 99.3853 92.7039 98.2991 92.7192C96.9834 92.7345 95.5453 93.9584 95.5453 96.4675C95.5453 98.9918 96.9834 100.231 98.2991 100.216C99.4159 100.2 100.793 99.4049 101.191 97.1559V100.292H100.961V99.5426C100.303 100.124 99.3395 100.445 98.2991 100.445C96.3102 100.445 94.5355 99.1907 94.5355 96.4675C94.5355 93.7442 96.3102 92.4897 98.2991 92.4897C99.3395 92.4897 100.303 92.811 100.961 93.3924V92.6427ZM108.837 99.4814L110.046 100.292H106.588V100.063H107.766V95.3047C107.766 93.6066 107.17 92.7192 105.884 92.7192C104.752 92.7192 103.314 93.6066 103.314 96.2227V99.4814L104.523 100.292H101.065V100.063H102.243V90.3938L101.035 89.5829H103.314V93.7748H103.605C104.064 92.964 104.814 92.4897 105.884 92.4897C107.965 92.4897 108.837 93.7136 108.837 95.3047V99.4814ZM116.917 96.1003C117.116 98.8847 115.494 100.445 113.505 100.445C111.516 100.445 109.894 98.8847 109.894 96.4675C109.894 94.0502 111.516 92.4897 113.505 92.4897C114.851 92.4897 116.014 93.1935 116.641 94.3868H111.929C111.837 94.4633 111.761 94.5398 111.669 94.6316C110.093 96.1921 110.017 98.0892 110.965 99.0071C111.899 99.9251 113.765 99.8639 115.341 98.3034C116.06 97.5996 116.565 96.8194 116.917 96.1003ZM116.045 93.9278C115.218 93.117 113.658 93.0711 112.22 94.1573H116.243C116.182 94.0808 116.121 94.0043 116.045 93.9278ZM124.883 99.4814L126.092 100.292H122.634V100.063H123.812V95.3047C123.812 93.6066 123.216 92.7192 121.931 92.7192C120.798 92.7192 119.36 93.6066 119.36 96.2227V99.4814L120.569 100.292H117.111V100.063H118.289V93.4536L117.081 92.6427H119.36V93.7748H119.651C120.11 92.964 120.86 92.4897 121.931 92.4897C124.011 92.4897 124.883 93.7136 124.883 95.3047V99.4814ZM132.932 92.8722L129.643 96.3298L132.947 100.063H134.034V100.292H130.362V100.063H131.57L129 97.0182L128.22 97.8291V100.292H125.971V100.063H127.149V90.3938L125.94 89.5829H129.398V89.8124H128.22V97.3395L131.907 93.4536L130.698 92.6427H134.034V92.8722H132.932ZM137.499 100.445C135.51 100.445 133.889 98.8847 133.889 96.4675C133.889 94.0502 135.51 92.4897 137.499 92.4897C139.488 92.4897 141.11 94.0502 141.11 96.4675C141.11 98.8847 139.488 100.445 137.499 100.445ZM134.96 99.0071C135.893 99.9251 137.759 99.8639 139.335 98.3034C140.911 96.7429 140.988 94.8458 140.039 93.9278C139.106 93.0099 137.239 93.0711 135.663 94.6316C134.088 96.1921 134.011 98.0892 134.96 99.0071Z" fill="black"/>
</svg>
