<svg width="33" height="36" viewBox="0 0 33 36" fill="none" xmlns="http://www.w3.org/2000/svg">
<path d="M18.3833 23.6381H20.4098V24H14.5716L16.3568 22.7937L13.9684 16.9313H5.71765L2.99151 23.6381H4.72852V24H0.482502L2.94326 22.6007L9.52941 6.36456V6.00268L9.50529 5.97856L7.62353 4.69993H10.6874L18.3833 23.6381ZM5.8624 16.5695H13.8237L9.84304 6.77469L5.8624 16.5695Z" fill="white"/>
<path d="M29.9713 30.554H31.7083V30.9159H26.7386V30.554H28.2826L22.01 24.0402H20.3213V29.6373L22.2272 30.9159H16.7508V30.554H18.6325V12.8945L16.7266 11.6158H23.4093C28.9822 11.6158 31.1052 14.4143 31.1052 17.8883C31.1052 21.3141 29.0546 23.9437 23.6988 24.0402L29.9713 30.554ZM20.3213 11.9777V23.6784H23.4093C28.8133 23.6784 29.4164 20.6145 29.4164 17.8883C29.4164 15.1622 28.8133 11.9777 23.4093 11.9777H20.3213Z" fill="white"/>
</svg>
